# xmcd
# 
# Track frame offsets:
#     150
#     15525
#     28500
#     42601
#     58625
# 
# Disc length: 1138
# 
# Revision: 0
# Processed by: cddbd v1.5.2PL0 Copyright (c) Steve Scherf et al.
# Submitted via: BonkEnc v1.0.8
# 
DISCID=39047005
DTITLE=Dan and the Champs - Dan and the Champs EP
DYEAR=2009
DGENRE=Rock
TTITLE0=Wooden Leg
TTITLE1=Hey, Rockstar!
TTITLE2=Enter Jazzman
TTITLE3=The Stripper Song
TTITLE4=Shutting Down For The Night
EXTD=
EXTT0=
EXTT1=
EXTT2=
EXTT3=
EXTT4=
PLAYORDER=
